<svg width="1037" height="1051" viewBox="0 0 1037 1051" fill="none" xmlns="http://www.w3.org/2000/svg">
<path d="M518.5 0L580.551 173.589L698.232 31.6915L697.17 216.034L856.285 122.944L792.238 295.806L973.596 262.75L854.29 403.283L1036.02 434.248L875.84 525.5L1036.02 616.752L854.29 647.717L973.596 788.25L792.238 755.194L856.285 928.056L697.17 834.966L698.232 1019.31L580.551 877.411L518.5 1051L456.449 877.411L338.768 1019.31L339.83 834.966L180.715 928.056L244.762 755.194L63.4037 788.25L182.71 647.717L0.983521 616.752L161.16 525.5L0.983521 434.248L182.71 403.283L63.4037 262.75L244.762 295.806L180.715 122.944L339.83 216.034L338.768 31.6915L456.449 173.589L518.5 0Z" fill="#FF3227"/>
</svg>
